<?xml version="1.0" encoding="utf-8"?>
<!-- Generator: Adobe Illustrator 18.0.0, SVG Export Plug-In . SVG Version: 6.00 Build 0)  -->
<!DOCTYPE svg PUBLIC "-//W3C//DTD SVG 1.1//EN" "http://www.w3.org/Graphics/SVG/1.1/DTD/svg11.dtd">
<svg version="1.1" id="Layer_1" xmlns="http://www.w3.org/2000/svg" xmlns:xlink="http://www.w3.org/1999/xlink" x="0px" y="0px"
	 viewBox="0 0 1400 980" enable-background="new 0 0 1400 980" xml:space="preserve">
<g>
	<g>
		<g>
			<rect fill="#051816" width="1400" height="980"/>
		</g>
		<g>
			<g>
				<rect x="49.5" fill="#052925" width="5" height="980"/>
			</g>
			<g>
				<rect x="103.5" fill="#052925" width="5" height="980"/>
			</g>
			<g>
				<rect x="157.5" fill="#052925" width="5" height="980"/>
			</g>
			<g>
				<rect x="211.5" fill="#052925" width="5" height="980"/>
			</g>
			<g>
				<rect x="265.5" fill="#052925" width="5" height="980"/>
			</g>
			<g>
				<rect x="319.5" fill="#052925" width="5" height="980"/>
			</g>
			<g>
				<rect x="373.5" fill="#052925" width="5" height="980"/>
			</g>
			<g>
				<rect x="427.5" fill="#052925" width="5" height="980"/>
			</g>
			<g>
				<rect x="481.5" fill="#052925" width="5" height="980"/>
			</g>
			<g>
				<rect x="535.5" fill="#052925" width="5" height="980"/>
			</g>
			<g>
				<rect x="589.5" fill="#052925" width="5" height="980"/>
			</g>
			<g>
				<rect x="643.5" fill="#052925" width="5" height="980"/>
			</g>
			<g>
				<rect x="697.5" fill="#052925" width="5" height="980"/>
			</g>
			<g>
				<rect x="751.5" fill="#052925" width="5" height="980"/>
			</g>
			<g>
				<rect x="805.5" fill="#052925" width="5" height="980"/>
			</g>
			<g>
				<rect x="859.5" fill="#052925" width="5" height="980"/>
			</g>
			<g>
				<rect x="913.5" fill="#052925" width="5" height="980"/>
			</g>
			<g>
				<rect x="967.5" fill="#052925" width="5" height="980"/>
			</g>
			<g>
				<rect x="1021.5" fill="#052925" width="5" height="980"/>
			</g>
			<g>
				<rect x="1075.5" fill="#052925" width="5" height="980"/>
			</g>
			<g>
				<rect x="1129.5" fill="#052925" width="5" height="980"/>
			</g>
			<g>
				<rect x="1183.5" fill="#052925" width="5" height="980"/>
			</g>
			<g>
				<rect x="1237.5" fill="#052925" width="5" height="980"/>
			</g>
			<g>
				<rect x="1291.5" fill="#052925" width="5" height="980"/>
			</g>
			<g>
				<rect x="1345.5" fill="#052925" width="5" height="980"/>
			</g>
		</g>
		<g>
			<g>
				<rect y="28.5" fill="#052925" width="1401" height="5"/>
			</g>
			<g>
				<rect y="82.5" fill="#052925" width="1401" height="5"/>
			</g>
			<g>
				<rect y="136.5" fill="#052925" width="1401" height="5"/>
			</g>
			<g>
				<rect y="190.5" fill="#052925" width="1401" height="5"/>
			</g>
			<g>
				<rect y="244.5" fill="#052925" width="1401" height="5"/>
			</g>
			<g>
				<rect y="298.5" fill="#052925" width="1401" height="5"/>
			</g>
			<g>
				<rect y="352.5" fill="#052925" width="1401" height="5"/>
			</g>
			<g>
				<rect y="406.5" fill="#052925" width="1401" height="5"/>
			</g>
			<g>
				<rect y="460.5" fill="#052925" width="1401" height="5"/>
			</g>
			<g>
				<rect y="514.5" fill="#052925" width="1401" height="5"/>
			</g>
			<g>
				<rect y="568.5" fill="#052925" width="1401" height="5"/>
			</g>
			<g>
				<rect y="622.5" fill="#052925" width="1401" height="5"/>
			</g>
			<g>
				<rect y="676.5" fill="#052925" width="1401" height="5"/>
			</g>
			<g>
				<rect y="730.5" fill="#052925" width="1401" height="5"/>
			</g>
			<g>
				<rect y="784.5" fill="#052925" width="1401" height="5"/>
			</g>
			<g>
				<rect y="838.5" fill="#052925" width="1401" height="5"/>
			</g>
			<g>
				<rect y="892.5" fill="#052925" width="1401" height="5"/>
			</g>
			<g>
				<rect y="946.5" fill="#052925" width="1401" height="5"/>
			</g>
		</g>
	</g>
	<g>
		<g>
			<polygon fill="#2898D4" points="453.9,147.1 440.1,127.2 427.4,141.4 415,113.8 373.4,231.6 336.7,51.3 277.9,187.3 257.9,99.8 
				220.9,144.6 44.3,144.6 44.3,152.6 224.7,152.6 253.7,117.4 275.5,212.9 333.9,77.9 371.3,261.5 415.9,135.4 425.1,155.9 
				439.3,140 449.7,155.1 626.3,155.1 626.3,147.1 			"/>
			<g>
				<radialGradient id="SVGID_1_" cx="634.7954" cy="151.5017" r="22.4151" gradientUnits="userSpaceOnUse">
					<stop  offset="0" style="stop-color:#2898D4"/>
					<stop  offset="0.9829" style="stop-color:#2898D4;stop-opacity:0"/>
				</radialGradient>
				<path fill="url(#SVGID_1_)" d="M634.8,173.9c-12.4,0-22.4-10.1-22.4-22.4c0-12.4,10.1-22.4,22.4-22.4
					c12.4,0,22.4,10.1,22.4,22.4C657.2,163.9,647.2,173.9,634.8,173.9z"/>
				<circle fill="#2898D4" cx="634.8" cy="151.5" r="10.4"/>
			</g>
		</g>
		<g>
			<polygon fill="#2898D4" points="584.1,369.5 555.1,469.9 530.9,281.5 490.9,413.8 474.4,360.3 453.1,385.6 443.9,369.5 
				259.6,369.5 230.5,469.9 206.3,281.5 166.3,413.8 149.8,360.3 128.6,385.6 119.4,369.5 44.3,369.5 44.3,377.5 114.8,377.5 
				127.3,399.6 146.5,376.7 166.4,441.2 203.2,319.7 227.5,509.2 265.6,377.5 439.3,377.5 451.9,399.6 471.1,376.7 490.9,441.2 
				527.7,319.7 552,509.2 590.1,377.5 626.3,377.5 626.3,369.5 			"/>
			<g>
				<radialGradient id="SVGID_2_" cx="634.7954" cy="372.9653" r="22.4151" gradientUnits="userSpaceOnUse">
					<stop  offset="0" style="stop-color:#2898D4"/>
					<stop  offset="0.9829" style="stop-color:#2898D4;stop-opacity:0"/>
				</radialGradient>
				<path fill="url(#SVGID_2_)" d="M634.8,395.4c-12.4,0-22.4-10.1-22.4-22.4c0-12.4,10.1-22.4,22.4-22.4
					c12.4,0,22.4,10.1,22.4,22.4C657.2,385.3,647.2,395.4,634.8,395.4z"/>
				<circle fill="#2898D4" cx="634.8" cy="373" r="10.4"/>
			</g>
		</g>
		<g>
			<polygon fill="#2898D4" points="599.8,628.6 571.9,719 548.7,545.3 504.7,662.1 482.9,630.4 449.3,630.4 434.2,585.7 
				402.6,630.4 44.3,630.4 44.3,638.4 406.8,638.4 431.7,603.2 443.6,638.4 478.7,638.4 506.7,679.2 545,577.8 568.8,756.2 
				605.7,636.6 627.6,636.6 627.6,628.6 			"/>
			<g>
				<radialGradient id="SVGID_3_" cx="634.7954" cy="631.9653" r="22.4151" gradientUnits="userSpaceOnUse">
					<stop  offset="0" style="stop-color:#2898D4"/>
					<stop  offset="0.9829" style="stop-color:#2898D4;stop-opacity:0"/>
				</radialGradient>
				<path fill="url(#SVGID_3_)" d="M634.8,654.4c-12.4,0-22.4-10.1-22.4-22.4c0-12.4,10.1-22.4,22.4-22.4
					c12.4,0,22.4,10.1,22.4,22.4C657.2,644.3,647.2,654.4,634.8,654.4z"/>
				<circle fill="#2898D4" cx="634.8" cy="632" r="10.4"/>
			</g>
		</g>
		<g>
			<polygon fill="#2898D4" points="576.6,841.6 567.9,812.1 548.4,888 529,774.5 508.2,841.1 490,841.1 482.8,807.9 461,859.4 
				452.3,841.6 443.4,841.6 428,841.6 396.5,841.6 387.6,812.6 367.3,888.7 347.1,775.1 325.7,841.1 306.4,841.1 299.1,808.4 
				276.4,859.7 267.2,841.6 242.1,841.6 195.3,841.6 186.4,812.6 166,888.7 145.8,775.1 124.5,841.1 105.2,841.1 97.8,808.4 
				75.2,859.7 66,841.6 40.8,841.6 40.8,849.6 61.1,849.6 75.7,878.4 95.3,833.8 98.8,849.1 130.3,849.1 143.6,808.1 164.5,925.5 
				186.9,841.6 189.3,849.6 242.1,849.6 262.3,849.6 276.9,878.4 296.6,833.8 300,849.1 331.5,849.1 344.8,808.1 365.7,925.5 
				388.2,841.6 390.6,849.6 428,849.6 443.4,849.6 447.3,849.6 461.5,878.7 480.3,834.3 483.5,849.1 514.1,849.1 526.7,808.7 
				546.8,926.2 568.4,842.1 570.6,849.6 634.8,849.6 634.8,841.6 			"/>
			<g>
				<radialGradient id="SVGID_4_" cx="634.7954" cy="845.5688" r="22.4151" gradientUnits="userSpaceOnUse">
					<stop  offset="0" style="stop-color:#2898D4"/>
					<stop  offset="0.9829" style="stop-color:#2898D4;stop-opacity:0"/>
				</radialGradient>
				<path fill="url(#SVGID_4_)" d="M634.8,868c-12.4,0-22.4-10.1-22.4-22.4c0-12.4,10.1-22.4,22.4-22.4c12.4,0,22.4,10.1,22.4,22.4
					C657.2,857.9,647.2,868,634.8,868z"/>
				<circle fill="#2898D4" cx="634.8" cy="845.6" r="10.4"/>
			</g>
		</g>
		<g>
			<g>
				<path fill="#2898D4" d="M1137.6,155.6c-4.2,0-7.9-2.5-9.5-6.5c-0.3-0.9-1.2-1.4-2.1-1.4h-28.1c-3.7,0-7.1-2-8.9-5.2l-5.8-10.3
					c-0.5-0.9-1.3-1.1-1.7-1.1c-0.4,0-1.3,0-1.9,0.8l-10.4,12.2c-1.9,2.3-4.8,3.6-7.8,3.6H935.5c-4.3,0-8.1-2.7-9.6-6.7L910,98.1
					c-0.3-0.9-1-1.2-1.4-1.3c-0.4-0.1-1.1-0.3-1.9,0.2l-29.1,17.9c-3.7,2.3-8.4,2-11.8-0.7l-17.8-14.3c-0.9-0.7-1.9-0.5-2.2-0.3
					c-0.4,0.2-1.2,0.6-1.4,1.8l-5.2,45.2c-0.5,4.8-4.1,8.4-8.9,9c-4.8,0.6-9.1-2-10.8-6.4c-0.3-0.9-1.2-1.4-2.1-1.4h-28.1
					c-3.7,0-7.1-2-8.9-5.2l-5.8-10.3c-0.5-0.9-1.3-1.1-1.7-1.1c-0.4,0-1.3,0-1.9,0.8L760.7,144c-1.9,2.3-4.8,3.6-7.8,3.6h-12.6v-8
					h12.6c0.7,0,1.3-0.3,1.7-0.8l10.4-12.2c2.2-2.5,5.4-3.9,8.8-3.6c3.3,0.3,6.3,2.2,7.9,5.1l5.8,10.3c0.4,0.7,1.1,1.1,1.9,1.1h28.1
					c4.3,0,8,2.6,9.5,6.5c0.6,1.5,1.8,1.5,2.4,1.4c0.5-0.1,1.8-0.4,1.9-2l5.2-45.2c0.4-3.7,2.8-6.9,6.3-8.3
					c3.4-1.4,7.4-0.8,10.3,1.5l17.8,14.3c0.7,0.6,1.8,0.7,2.6,0.2l29.1-17.9c2.6-1.6,5.8-2,8.7-1c2.9,1,5.2,3.2,6.2,6.1l15.9,42.8
					c0.3,0.9,1.2,1.5,2.1,1.5h125.9c0.7,0,1.3-0.3,1.7-0.8l10.4-12.2c2.2-2.5,5.4-3.9,8.8-3.6c3.3,0.3,6.3,2.2,7.9,5.1l5.8,10.3
					c0.4,0.7,1.1,1.1,1.9,1.1h28.1c4.2,0,8,2.6,9.5,6.5c0.6,1.5,1.8,1.5,2.4,1.4c0.5-0.1,1.8-0.4,1.9-2l5.2-45.2
					c0.4-3.7,2.8-6.9,6.3-8.3c3.4-1.4,7.4-0.8,10.3,1.5l17.8,14.3c0.7,0.6,1.8,0.7,2.6,0.2l29.1-17.9c2.6-1.6,5.8-2,8.7-1
					c2.9,1,5.2,3.2,6.3,6.1l15.9,42.8c0.3,0.9,1.2,1.5,2.1,1.5h90.3v8h-90.3c-4.3,0-8.1-2.7-9.6-6.7l-15.9-42.8
					c-0.3-0.9-1-1.2-1.4-1.3c-0.4-0.1-1.1-0.3-1.9,0.2l-29.1,17.9c-3.7,2.3-8.4,2-11.8-0.7l-17.8-14.3c-0.9-0.7-1.9-0.5-2.2-0.3
					c-0.4,0.2-1.2,0.6-1.4,1.8l-5.2,45.2c-0.5,4.8-4.1,8.4-8.9,9C1138.5,155.5,1138,155.6,1137.6,155.6z"/>
			</g>
			<g>
				<radialGradient id="SVGID_5_" cx="1336.7603" cy="144.5193" r="22.4151" gradientUnits="userSpaceOnUse">
					<stop  offset="0" style="stop-color:#2898D4"/>
					<stop  offset="0.9829" style="stop-color:#2898D4;stop-opacity:0"/>
				</radialGradient>
				<path fill="url(#SVGID_5_)" d="M1336.8,166.9c-12.4,0-22.4-10.1-22.4-22.4c0-12.4,10.1-22.4,22.4-22.4s22.4,10.1,22.4,22.4
					C1359.2,156.9,1349.1,166.9,1336.8,166.9z"/>
				<circle fill="#2898D4" cx="1336.8" cy="144.5" r="10.4"/>
			</g>
		</g>
		<g>
			<g>
				<polygon fill="#2898D4" points="1035.2,497.6 1019.3,254.2 990.1,462.3 972.6,285.3 950.6,405.6 928.6,325 913.3,354.6 
					903.2,340 887.2,378.9 874.2,304.4 847.9,415.6 828.8,317.3 811.6,369.3 791.8,330.1 742.8,330.1 742.8,322.1 796.8,322.1 
					810,348.5 830.8,285.8 848.7,377.6 875.4,264.7 890.3,350.2 901.4,323.2 912.3,339.1 931,303.1 949,369.5 975,227.9 
					991.5,394.9 1022.2,176 1039.3,437.6 1066.3,305.3 1082.4,367.8 1106,252.6 1122.1,403.5 1158.5,236.3 1178.8,410.1 
					1211.7,289.8 1227,342.7 1247.1,295.2 1260.9,362.8 1277.5,319.1 1334.3,319.1 1334.3,327.1 1283,327.1 1258.6,391.4 
					1244.4,322 1225.6,366.5 1211.9,319.4 1175.7,452 1156.1,284.9 1119.4,453.7 1103.5,304.6 1083.2,403.4 1067.2,340.9 				"/>
			</g>
			<g>
				<radialGradient id="SVGID_6_" cx="1336.7603" cy="323.011" r="22.4151" gradientUnits="userSpaceOnUse">
					<stop  offset="0" style="stop-color:#2898D4"/>
					<stop  offset="0.9829" style="stop-color:#2898D4;stop-opacity:0"/>
				</radialGradient>
				<path fill="url(#SVGID_6_)" d="M1336.8,345.4c-12.4,0-22.4-10.1-22.4-22.4c0-12.4,10.1-22.4,22.4-22.4s22.4,10.1,22.4,22.4
					C1359.2,335.4,1349.1,345.4,1336.8,345.4z"/>
				<circle fill="#2898D4" cx="1336.8" cy="323" r="10.4"/>
			</g>
		</g>
		<g>
			<g>
				<polygon fill="#2898D4" points="874.2,765.4 862.6,561.3 851.7,636 814.9,636 798.2,698.1 784.9,610 777.3,633.6 745.3,633.6 
					745.3,625.6 771.5,625.6 787.8,575.3 800.4,659.1 808.8,628 844.8,628 866.1,481.9 878.5,699.8 892.6,625.6 932.5,625.6 
					932.5,633.6 899.2,633.6 				"/>
			</g>
			<g>
				<polygon fill="#2898D4" points="1061.4,765.4 1049.8,561.3 1038.9,636 1002.1,636 985.3,698.1 972.1,610 964.5,633.6 
					932.5,633.6 932.5,625.6 958.6,625.6 975,575.3 987.6,659.1 996,628 1032,628 1053.3,481.9 1065.7,699.8 1079.7,625.6 
					1119.6,625.6 1119.6,633.6 1086.4,633.6 				"/>
			</g>
			<g>
				<polygon fill="#2898D4" points="1248.6,765.4 1237,561.3 1226.1,636 1189.3,636 1172.5,698.1 1159.3,610 1151.6,633.6 
					1119.6,633.6 1119.6,625.6 1145.8,625.6 1162.2,575.3 1174.7,659.1 1183.2,628 1219.2,628 1240.5,481.9 1252.9,699.8 
					1266.9,625.6 1334.3,625.6 1334.3,633.6 1273.5,633.6 				"/>
			</g>
			<g>
				<radialGradient id="SVGID_7_" cx="1336.7603" cy="629.5796" r="22.4151" gradientUnits="userSpaceOnUse">
					<stop  offset="0" style="stop-color:#2898D4"/>
					<stop  offset="0.9829" style="stop-color:#2898D4;stop-opacity:0"/>
				</radialGradient>
				<path fill="url(#SVGID_7_)" d="M1336.8,652c-12.4,0-22.4-10.1-22.4-22.4c0-12.4,10.1-22.4,22.4-22.4s22.4,10.1,22.4,22.4
					C1359.2,641.9,1349.1,652,1336.8,652z"/>
				<circle fill="#2898D4" cx="1336.8" cy="629.6" r="10.4"/>
			</g>
		</g>
		<g>
			<g>
				<path fill="#2898D4" d="M1185.5,928.7c-0.1,0-0.1,0-0.2,0c-5-0.1-9-3.4-9.9-8.3l-22.7-115.9c-0.5-2.6-2.6-3.6-4.3-3.6
					c0,0-0.1,0-0.1,0c-1.7,0-3.8,0.9-4.4,3.5l-21.1,89.1c-1,4.1-4.5,7-8.7,7.2c-4.2,0.2-8-2.4-9.3-6.5l-11.9-36.2
					c-1.6-5-6.3-8.4-11.6-8.4H943.7c-5.5,0-10.4,3-12.9,7.9l-5,9.9c-2.1,4.1-6.2,6.5-10.8,6.3c-4.6-0.2-8.5-2.9-10.3-7.1l-4.7-11
					c-0.7-1.6-2-1.6-2.6-1.6c-0.6,0-1.9,0.3-2.3,2l-12.5,54.7c-1.3,5.8-6.2,9.7-12.1,9.7c-0.1,0-0.1,0-0.2,0
					c-6-0.1-10.9-4.1-12-10.1l-20.8-105.9c-0.5-2.6-2.6-3.6-4.3-3.6c-1.7,0-3.8,0.9-4.4,3.4l-18.6,78.6c-1.3,5.5-6,9.4-11.6,9.6
					c-5.7,0.2-10.6-3.2-12.4-8.6l-6-18.3c-3.1-9.5-11.9-15.8-21.9-15.8h-12.9v-8h12.9c13.4,0,25.3,8.6,29.5,21.3l6,18.3
					c1,3,3.7,3.1,4.4,3.1c0.8,0,3.4-0.4,4.2-3.4l18.6-78.6c1.4-5.8,6.2-9.6,12.1-9.6c0.1,0,0.2,0,0.3,0c6,0.1,10.8,4.2,12,10.1
					L866,908.7c0.5,2.6,2.6,3.6,4.3,3.6c1.8,0,3.8-0.9,4.4-3.5l12.5-54.7c1-4.6,4.7-7.8,9.4-8.2c4.7-0.4,8.9,2.1,10.7,6.4l4.7,11
					c0.8,2,2.7,2.2,3.2,2.2c0.5,0,2.4-0.1,3.4-2l5-9.9c3.9-7.5,11.5-12.2,20-12.2h137.6c8.7,0,16.4,5.6,19.2,13.9l11.9,36.2
					c0.3,0.8,0.9,1,1.4,1c0.5,0,1.1-0.2,1.3-1.1l21.1-89.1c1.4-5.9,6.4-9.8,12.4-9.6c6,0.1,10.9,4.2,12,10.1l22.7,115.9
					c0.3,1.6,1.6,1.8,2.2,1.8c0.5,0.1,1.9-0.1,2.3-1.8l14.5-63.2c1.1-4.8,5-8.2,9.9-8.6c4.9-0.4,9.3,2.2,11.2,6.7l3.4,8.1
					c0.7,1.6,2.2,2.6,3.9,2.7c1.7,0.1,3.3-0.8,4.1-2.4l3.3-6.4c4.5-8.8,13.4-14.2,23.2-14.2h73.1v8h-73.1c-6.8,0-13,3.8-16.1,9.9
					l-3.3,6.4c-2.2,4.3-6.7,6.9-11.5,6.8c-4.9-0.2-9.1-3.1-11-7.6l-3.4-8.1c-0.8-1.9-2.6-1.9-3.1-1.9c-0.5,0-2.3,0.4-2.8,2.4
					l-14.5,63.2C1194.4,925.5,1190.4,928.7,1185.5,928.7z"/>
			</g>
			<g>
				<radialGradient id="SVGID_8_" cx="1336.7603" cy="845.5688" r="22.4151" gradientUnits="userSpaceOnUse">
					<stop  offset="0" style="stop-color:#2898D4"/>
					<stop  offset="0.9829" style="stop-color:#2898D4;stop-opacity:0"/>
				</radialGradient>
				<path fill="url(#SVGID_8_)" d="M1336.8,868c-12.4,0-22.4-10.1-22.4-22.4c0-12.4,10.1-22.4,22.4-22.4s22.4,10.1,22.4,22.4
					C1359.2,857.9,1349.1,868,1336.8,868z"/>
				<circle fill="#2898D4" cx="1336.8" cy="845.6" r="10.4"/>
			</g>
		</g>
	</g>
</g>
</svg>
